<svg width="26" height="25" viewBox="0 0 26 25" fill="none" xmlns="http://www.w3.org/2000/svg">
<path d="M25.0605 12.5C25.0605 5.59644 19.4641 0 12.5605 0C5.65699 0 0.0605469 5.59644 0.0605469 12.5C0.0605469 19.4036 5.65699 25 12.5605 25C19.4641 25 25.0605 19.4036 25.0605 12.5Z" fill="#706F96"/>
<path d="M18.9584 15.7904L17.114 14.2573C15.937 13.0803 13.8389 15.7368 13.833 15.7427C13.6694 15.9057 12.3547 14.8558 11.2795 13.7812C10.2043 12.7066 9.15496 11.3912 9.31798 11.2276C9.32445 11.2217 11.981 9.12429 10.8034 7.94668L9.27325 6.10228C7.6213 4.66278 2.46534 8.57403 9.37153 15.4826L9.47629 15.5867L9.58104 15.6921C16.4843 22.5983 20.3979 17.4435 18.9584 15.7904Z" fill="white"/>
</svg>
