<svg width="27" height="22" viewBox="0 0 27 22" fill="none" xmlns="http://www.w3.org/2000/svg">
<path d="M22.6456 11.6299H20.0485C19.695 11.6299 19.3528 11.6782 19.0271 11.767C18.3846 10.504 17.0729 9.63623 15.5615 9.63623H10.9707C9.45924 9.63623 8.14755 10.504 7.50508 11.767C7.17224 11.676 6.82874 11.6299 6.4837 11.6299H3.88655C1.74351 11.6299 0 13.3734 0 15.5164V19.6682C0 20.954 1.0461 22.0001 2.33193 22.0001H24.2002C25.4861 22.0001 26.5322 20.954 26.5322 19.6682V15.5164C26.5322 13.3734 24.7887 11.6299 22.6456 11.6299ZM7.08414 13.5229V20.4456H2.33193C1.90332 20.4456 1.55462 20.0969 1.55462 19.6682V15.5165C1.55462 14.2307 2.60072 13.1845 3.88655 13.1845H6.4837C6.69471 13.1845 6.89904 13.2132 7.09357 13.266C7.08761 13.3515 7.08447 13.4372 7.08414 13.5229ZM17.8934 20.4456H8.63876V13.5228C8.63876 12.237 9.68486 11.1909 10.9707 11.1909H15.5615C16.8473 11.1909 17.8934 12.237 17.8934 13.5228V20.4456ZM24.9776 19.6682C24.9776 20.0969 24.6289 20.4456 24.2002 20.4456H19.448V13.5228C19.4477 13.4371 19.4446 13.3515 19.4386 13.266C19.6374 13.2119 19.8425 13.1845 20.0485 13.1845H22.6456C23.9314 13.1845 24.9776 14.2306 24.9776 15.5164V19.6682Z" fill="white"/>
<path d="M5.18508 4.28945C3.28073 4.28945 1.73145 5.83874 1.73145 7.74309C1.73139 9.64745 3.28073 11.1967 5.18508 11.1967C7.08939 11.1967 8.63872 9.64745 8.63872 7.74309C8.63872 5.83874 7.08944 4.28945 5.18508 4.28945ZM5.18503 9.64211C4.13789 9.64211 3.28601 8.79023 3.28601 7.74309C3.28601 6.69595 4.13789 5.84407 5.18503 5.84407C6.23217 5.84407 7.08405 6.69595 7.08405 7.74309C7.08405 8.79023 6.23217 9.64211 5.18503 9.64211ZM13.266 0C10.7218 0 8.65199 2.06982 8.65199 4.61401C8.65199 7.15819 10.7218 9.22801 13.266 9.22801C15.8102 9.22801 17.88 7.15819 17.88 4.61401C17.88 2.06987 15.8102 0 13.266 0ZM13.266 7.67339C11.579 7.67339 10.2066 6.30098 10.2066 4.61401C10.2066 2.92709 11.579 1.55462 13.266 1.55462C14.953 1.55462 16.3254 2.92704 16.3254 4.61401C16.3254 6.30098 14.953 7.67339 13.266 7.67339ZM21.3469 4.28945C19.4426 4.28945 17.8933 5.83874 17.8933 7.74309C17.8933 9.64745 19.4426 11.1967 21.3469 11.1967C23.2513 11.1967 24.8005 9.64745 24.8005 7.74309C24.8005 5.83874 23.2513 4.28945 21.3469 4.28945ZM21.3469 9.64211C20.2998 9.64211 19.4479 8.79023 19.4479 7.74309C19.4479 6.69595 20.2998 5.84407 21.3469 5.84407C22.394 5.84407 23.2459 6.69595 23.2459 7.74309C23.2459 8.79023 22.394 9.64211 21.3469 9.64211Z" fill="white"/>
</svg>
