<svg width="23" height="22" viewBox="0 0 23 22" fill="none" xmlns="http://www.w3.org/2000/svg">
<path d="M8.47917 9.16667C5.95192 9.16667 3.89583 7.11058 3.89583 4.58333C3.89583 2.05608 5.95192 0 8.47917 0C11.0064 0 13.0625 2.05608 13.0625 4.58333C13.0625 7.11058 11.0064 9.16667 8.47917 9.16667ZM8.47917 1.375C6.71 1.375 5.27083 2.81417 5.27083 4.58333C5.27083 6.3525 6.71 7.79167 8.47917 7.79167C10.2483 7.79167 11.6875 6.3525 11.6875 4.58333C11.6875 2.81417 10.2483 1.375 8.47917 1.375ZM8.34167 19.7083H0.6875C0.505164 19.7083 0.330295 19.6359 0.201364 19.507C0.0724328 19.378 0 19.2032 0 19.0208V15.3542C0.00145537 14.1998 0.460664 13.0932 1.27691 12.2769C2.09316 11.4607 3.19982 11.0015 4.35417 11H12.6042C13.9352 11 15.1736 11.5922 16.0004 12.6234C16.1147 12.7656 16.1678 12.9474 16.148 13.1288C16.1282 13.3102 16.0372 13.4762 15.895 13.5905C15.7528 13.7048 15.571 13.7578 15.3896 13.7381C15.2083 13.7183 15.0422 13.6273 14.9279 13.4851C14.6491 13.1371 14.2953 12.8566 13.893 12.6646C13.4906 12.4725 13.05 12.3738 12.6042 12.3759H4.35417C3.56434 12.3769 2.80714 12.6911 2.24865 13.2496C1.69016 13.8081 1.37597 14.5653 1.375 15.3551V18.3333H8.34167C8.524 18.3333 8.69887 18.4058 8.8278 18.5347C8.95673 18.6636 9.02917 18.8385 9.02917 19.0208C9.02917 19.2032 8.95673 19.378 8.8278 19.507C8.69887 19.6359 8.524 19.7083 8.34167 19.7083ZM15.5833 22C15.4798 22.0002 15.3775 21.977 15.2842 21.9321C15.1909 21.8872 15.1089 21.8218 15.0444 21.7408C14.9799 21.6598 14.9345 21.5653 14.9116 21.4643C14.8888 21.3633 14.889 21.2585 14.9123 21.1576L16.2873 15.1992C16.3283 15.0215 16.4382 14.8674 16.5928 14.7707C16.7474 14.674 16.9342 14.6427 17.1119 14.6836C17.2896 14.7246 17.4438 14.8345 17.5405 14.9891C17.6372 15.1437 17.6685 15.3304 17.6275 15.5082L16.2525 21.4665C16.218 21.6181 16.133 21.7535 16.0114 21.8505C15.8898 21.9474 15.7388 22.0001 15.5833 22ZM19.25 21.0833C19.111 21.083 18.9754 21.0406 18.861 20.9618C18.7466 20.8829 18.6587 20.7713 18.6089 20.6416C18.5591 20.5118 18.5497 20.3701 18.582 20.2349C18.6143 20.0998 18.6868 19.9775 18.7898 19.8843L20.5141 18.3333L18.7898 16.7823C18.7227 16.7219 18.6681 16.6488 18.6291 16.5673C18.5902 16.4858 18.5677 16.3974 18.5629 16.3071C18.5533 16.1249 18.6165 15.9463 18.7385 15.8107C18.8605 15.675 19.0315 15.5934 19.2137 15.5838C19.3959 15.5741 19.5745 15.6373 19.7102 15.7593L22.0018 17.8218C22.0734 17.8865 22.1306 17.9654 22.1697 18.0535C22.2088 18.1416 22.2291 18.2369 22.2291 18.3333C22.2291 18.4297 22.2088 18.5251 22.1697 18.6132C22.1306 18.7013 22.0734 18.7802 22.0018 18.8448L19.7102 20.9073C19.5838 21.0209 19.4199 21.0836 19.25 21.0833Z" fill="#7AC144"/>
</svg>
