<svg width="51" height="50" viewBox="0 0 51 50" fill="none" xmlns="http://www.w3.org/2000/svg">
<path d="M43.282 24.4995C42.3063 26.8548 42.2449 29.7666 43.2206 32.1219L44.0601 33.7665H7.82184C7.82184 33.7665 1.07499 29.9756 7.82184 23.2288L43.7472 22.4884L43.282 24.4995Z" fill="#7AC144"/>
<path d="M44.0599 33.7667H7.82175C7.82175 33.7667 1.07511 29.9756 7.82175 23.2289L43.7473 22.4883L43.2815 24.4998C43.0638 25.0288 42.8926 25.5757 42.7696 26.1343H9.8864C8.61247 26.1343 7.57657 27.1702 7.57657 28.4432C7.57657 29.7171 8.61247 30.753 9.8864 30.753H42.7819C42.8922 31.2239 43.0383 31.6826 43.2202 32.1219L44.0599 33.7667Z" fill="#DEE1E1"/>
<path d="M43.5115 35.3052L10.3872 35.253C6.41876 35.253 3.01071 32.7215 3.01071 28.7531C3.01071 27.8765 2.85808 26.7272 3.14546 25.9506C4.15899 23.211 6.79471 21.2581 9.88669 21.2581H43.8691C44.7642 21.2581 45.4898 21.9837 45.4898 22.8789C45.4898 23.774 44.7642 24.4996 43.8691 24.4996H18.1503L15.6386 25.0892L13.4542 24.4996H9.88658C7.70843 24.4996 5.9427 26.2654 5.9427 28.4435C5.9427 30.6217 7.70843 32.3874 9.88658 32.3874H43.869C44.7641 32.3874 45.4897 33.113 45.4897 34.0082C45.4897 34.0727 45.486 34.1364 45.4786 34.199C45.3842 35.0042 44.3421 35.3052 43.5115 35.3052Z" fill="#7AC144"/>
<path d="M45.4786 34.1989C45.4357 34.5602 45.2728 34.8966 45.0158 35.1541C44.7216 35.4473 44.3171 35.6292 43.8696 35.6292L27.0809 36.6353L9.8871 35.6292C5.91819 35.6292 2.70117 32.4122 2.70117 28.4432C2.70117 27.4084 2.91979 26.4246 3.31413 25.5358V27.013C3.31413 30.9819 6.53115 34.1989 10.5001 34.1989H45.4786Z" fill="#ABD641"/>
<path d="M18.151 29.2245V24.4995H14.7832L13.5874 24.6195L13.6592 29.0202C13.6592 29.0535 13.6674 29.0862 13.6829 29.1156C13.6984 29.145 13.7209 29.1702 13.7484 29.1889C13.7759 29.2077 13.8075 29.2194 13.8405 29.2232C13.8736 29.2269 13.907 29.2225 13.938 29.2104L14.7831 29.0038L15.7285 28.6337C15.7764 28.6149 15.8296 28.6149 15.8774 28.6337L17.8722 29.4148C17.9032 29.427 17.9366 29.4313 17.9697 29.4276C18.0028 29.4238 18.0344 29.4121 18.0619 29.3933C18.0893 29.3746 18.1118 29.3494 18.1274 29.32C18.1429 29.2905 18.151 29.2578 18.151 29.2245Z" fill="#EF5227"/>
<path d="M14.7827 24.4998V29.004L13.7335 29.4147C13.5997 29.4668 13.4546 29.3688 13.4546 29.2247V24.4998H14.7827Z" fill="#D83724"/>
<path d="M38.625 17.132V19.4357L38.5228 20.4573C38.5228 20.8527 38.202 21.1724 37.8077 21.1724L10.5811 21.0703C10.1857 21.0703 9.86594 20.7505 9.86594 20.3552L9.66162 17.132L23.6384 16.4641L38.625 17.132Z" fill="#FDCD08"/>
<path d="M47.0128 17.2938C46.8096 17.2938 46.6147 17.2131 46.471 17.0694C46.3273 16.9257 46.2466 16.7308 46.2466 16.5276V8.57977C46.2466 8.15662 46.5895 7.81357 47.0128 7.81357C47.436 7.81357 47.779 8.15662 47.779 8.57977V16.5275C47.779 16.6281 47.7592 16.7278 47.7207 16.8207C47.6822 16.9137 47.6258 16.9982 47.5546 17.0694C47.4835 17.1405 47.399 17.197 47.306 17.2355C47.2131 17.274 47.1134 17.2938 47.0128 17.2938Z" fill="#706F96"/>
<path d="M45.6442 19.0551C45.0046 20.6316 44.3611 22.1869 43.7215 23.7635C43.3392 24.7058 44.026 25.7384 45.035 25.7384L46.2176 25.8406H49.0943C50.1033 25.8406 50.7901 24.808 50.4078 23.8655L49.0741 20.5778L48.2352 19.055L45.6442 19.0551Z" fill="#FDCD08"/>
<path d="M46.6732 21.159C47.5138 21.2355 48.3954 21.0148 49.0732 20.578L48.3561 18.7857L47.1709 19.14L47.171 19.1397L45.626 18.9335C45.4309 19.4147 45.1472 20.0979 44.9521 20.5791L44.9522 20.5792L43.6189 23.8656C43.2368 24.8085 43.9233 25.8404 44.9317 25.8404H46.5662C45.5579 25.8404 44.8714 24.8085 45.2535 23.8656C45.5856 23.0475 45.9174 22.2295 46.2493 21.4114C46.3181 21.2416 46.4908 21.1423 46.6732 21.159Z" fill="#FAAB18"/>
<path d="M49.3715 17.2603C49.3715 16.2163 48.7057 15.3293 47.7793 15.0083C47.5391 14.925 47.19 15.0732 46.922 15.0732C45.6195 15.0732 44.8179 15.9457 44.8179 17.2604C44.8179 18.5751 45.7923 19.3639 47.0947 19.3639C47.3629 19.3639 47.5391 19.5956 47.7793 19.5124C48.7057 19.1913 49.3715 18.3043 49.3715 17.2603Z" fill="#FDCD08"/>
<path d="M47.7788 19.5124C47.5388 19.5962 47.2803 19.6411 47.0126 19.6411C45.7101 19.6411 44.6548 18.5746 44.6548 17.2598C44.6548 15.946 45.7101 14.8795 47.0126 14.8795C47.2803 14.8795 47.5388 14.9244 47.7788 15.0082C46.8522 15.329 46.1872 16.2167 46.1872 17.2598C46.1872 18.3039 46.8522 19.1916 47.7788 19.5124Z" fill="#FAAB18"/>
<path d="M47.2021 9.39897L40.4637 11.7317L38.6249 11.5431L25.5455 16.8961C24.637 17.2106 23.6491 17.2106 22.7406 16.8961L9.66144 11.7518L7.82256 11.7318L1.08378 9.39897C0.31452 9.13264 0.31452 8.04474 1.08378 7.77851L22.9961 0.19293C23.739 -0.06431 24.5468 -0.06431 25.2898 0.19293L47.2021 7.77851C47.9712 8.04474 47.9712 9.13264 47.2021 9.39897Z" fill="#706F96"/>
<path d="M40.4634 11.0402V11.7318L25.545 16.896C24.6363 17.2107 23.6483 17.2107 22.7397 16.896L7.82227 11.7318V11.0402C7.82227 9.5824 8.86328 8.33809 10.2986 8.07963C14.859 7.26235 19.5165 6.8486 24.1423 6.8486C28.7681 6.8486 33.4266 7.26235 37.987 8.07963C38.6817 8.20529 39.312 8.57102 39.7636 9.11145C40.2131 9.64778 40.4634 10.3343 40.4634 11.0402Z" fill="#706F96"/>
<path d="M38.6238 11.0403V17.1321H9.96691L9.86475 11.2447C9.86475 10.6787 10.2703 10.1945 10.8271 10.0943C11.119 10.042 11.2068 9.78714 11.4992 9.7382C15.6771 9.03927 19.9057 8.68786 24.1416 8.68759C28.6663 8.68759 33.1909 9.08908 37.6614 9.89001C37.9393 9.94007 38.1804 10.0862 38.351 10.2905C38.5227 10.4948 38.6238 10.7574 38.6238 11.0403Z" fill="#706F96"/>
<path d="M38.625 19.4357V20.5595C38.625 20.9548 38.3042 21.2746 37.9099 21.2746H10.3767C10.1871 21.2746 10.0052 21.1992 9.87108 21.0651C9.73696 20.931 9.66162 20.7491 9.66162 20.5595V17.132L10.5811 16.4641L11.5005 17.132V18.9249C11.5005 19.0604 11.5543 19.1903 11.6501 19.2861C11.7459 19.3819 11.8758 19.4357 12.0113 19.4357H38.625Z" fill="#FAAB18"/>
<path d="M11.5005 9.73877V17.1321H9.66162V11.0403C9.66162 10.4743 10.0672 9.99008 10.624 9.88997C10.9161 9.83786 11.2083 9.78678 11.5005 9.73877Z" fill="#706F96"/>
<path d="M45.9815 46.4691C45.4984 45.3029 45.2498 44.0529 45.2498 42.7906C45.2498 41.5283 45.4984 40.2784 45.9815 39.1121L46.2924 37.7311H4.51796C4.51796 37.7311 -0.184566 42.8435 4.82352 47.8515L46.5644 48.1645L45.9815 46.4691Z" fill="#7AC144"/>
<path d="M46.5644 48.1642L4.82385 47.8516C-0.18505 42.8437 4.51839 37.7316 4.51839 37.7316L46.4933 37.8092L45.9821 39.1118C45.7944 39.5639 45.6418 40.0298 45.5254 40.5053H7.18579C5.91186 40.5053 4.87595 41.5412 4.87595 42.8141C4.87595 44.088 5.91186 45.1239 7.18579 45.1239H45.5377C45.6528 45.5826 45.8013 46.0323 45.9821 46.4694L46.5644 48.1642Z" fill="#DEE1E1"/>
<path d="M45.8611 49.6422L8.09234 49.5728C4.12394 49.5728 0.632519 47.3333 0.632519 43.3649C0.632519 42.1055 0.324507 40.3712 0.893742 39.342C2.11813 37.1282 4.477 35.6291 7.18588 35.6291H46.5709C47.466 35.6291 48.1917 36.3547 48.1917 37.2498C48.1917 38.145 47.466 38.8706 46.5709 38.8706H36.8126L34.2628 39.435L32.1166 38.8706H7.18598C5.00783 38.8706 3.24209 40.6363 3.24209 42.8145C3.24209 44.9926 5.00783 46.7584 7.18598 46.7584H46.5709C47.466 46.7584 48.1917 47.484 48.1917 48.3791C48.1917 48.4791 48.1826 48.5769 48.1653 48.6719C48.0275 49.4273 46.6563 49.6422 45.8611 49.6422Z" fill="#EF5227"/>
<path d="M48.1654 48.6719C48.1051 49.0029 47.9447 49.2971 47.7169 49.525C47.5665 49.6757 47.3878 49.7953 47.1911 49.8768C46.9944 49.9583 46.7836 50.0002 46.5706 50H7.18593C3.21702 50 0 46.783 0 42.8141C0 41.394 0.411705 40.0701 1.12376 38.9545V41.486C1.12376 45.4549 4.34078 48.6719 8.30969 48.6719H48.1654Z" fill="#D83724"/>
<path d="M36.8121 43.6322V38.869H33.6484L32.2451 38.9544L32.3203 43.4279C32.3203 43.4612 32.3284 43.4939 32.344 43.5233C32.3595 43.5527 32.382 43.5779 32.4095 43.5966C32.4369 43.6154 32.4686 43.6271 32.5016 43.6309C32.5347 43.6346 32.5681 43.6303 32.5991 43.6181L33.6483 43.3317L34.3896 43.0414C34.4375 43.0226 34.4907 43.0226 34.5385 43.0414L36.5333 43.8226C36.5643 43.8347 36.5977 43.8391 36.6308 43.8353C36.6638 43.8316 36.6955 43.8198 36.723 43.801C36.7504 43.7823 36.7729 43.7571 36.7884 43.7277C36.804 43.6983 36.8121 43.6655 36.8121 43.6322Z" fill="#FDCD08"/>
<path d="M33.6481 38.8687V43.3321L32.3946 43.8225C32.2608 43.8746 32.1157 43.7765 32.1157 43.6324V38.8687H33.6481Z" fill="#FAAB18"/>
</svg>
