<svg width="26" height="25" viewBox="0 0 26 25" fill="none" xmlns="http://www.w3.org/2000/svg">
<path d="M12.5605 25C19.4641 25 25.0605 19.4036 25.0605 12.5C25.0605 5.59644 19.4641 0 12.5605 0C5.65699 0 0.0605469 5.59644 0.0605469 12.5C0.0605469 19.4036 5.65699 25 12.5605 25Z" fill="#7AC144"/>
<path d="M12.5576 13.1172L5.96875 9.83006V16.3613C5.96965 16.6924 6.10159 17.0097 6.33572 17.2439C6.56985 17.478 6.88715 17.6099 7.21826 17.6108H17.9028C18.2339 17.6099 18.5512 17.478 18.7854 17.2439C19.0195 17.0097 19.1514 16.6924 19.1523 16.3613V9.89891L12.5576 13.1172Z" fill="white"/>
<path d="M12.5635 11.8828L19.1523 8.66701V8.63869C19.1514 8.30757 19.0195 7.99028 18.7854 7.75615C18.5512 7.52201 18.2339 7.39008 17.9028 7.38918H7.21826C6.89476 7.38982 6.58405 7.51556 6.35115 7.74008C6.11826 7.9646 5.98123 8.27051 5.96875 8.59377L12.5635 11.8828Z" fill="white"/>
</svg>
