<svg width="24" height="22" viewBox="0 0 24 22" fill="none" xmlns="http://www.w3.org/2000/svg">
<path d="M0.000390258 8.8959C0.000390258 10.0943 0.794528 11.1714 1.95666 11.4641L1.97695 11.4691C2.42339 11.5745 2.75977 11.5745 2.75977 11.5745C4.38512 11.5745 5.48404 10.5111 5.48404 8.98566V5.34355C5.48393 5.08546 5.38136 4.83797 5.19886 4.65547C5.01636 4.47297 4.76887 4.3704 4.51078 4.37029H4.50571C4.24761 4.3704 4.00012 4.47297 3.81762 4.65547C3.63512 4.83797 3.53255 5.08546 3.53245 5.34355V8.88536C3.53245 9.43209 3.21635 9.77316 2.75977 9.77316C2.33832 9.77316 2.04251 9.50741 1.97695 9.08087V8.85493C1.97695 8.59277 1.87281 8.34134 1.68744 8.15597C1.50206 7.97059 1.25064 7.86645 0.988477 7.86645C0.726317 7.86645 0.474894 7.97059 0.289518 8.15597C0.104143 8.34134 0 8.59277 0 8.85493V8.8959H0.000390258ZM10.7702 4.19468C8.50761 4.19468 6.89709 5.73496 6.89709 7.88206C6.89709 10.0292 8.50761 11.5745 10.7702 11.5745C13.0227 11.5745 14.6281 10.0342 14.6281 7.88206C14.6281 5.72989 13.0231 4.19468 10.7702 4.19468ZM10.7702 9.77355C9.69667 9.77355 8.91385 8.9759 8.91385 7.88206C8.91385 6.78822 9.69667 5.99564 10.7702 5.99564C11.8387 5.99564 12.6114 6.78314 12.6114 7.88206C12.6114 8.98097 11.8391 9.77355 10.7702 9.77355ZM20.5422 7.68655C21.0792 7.36031 21.43 6.79836 21.43 6.16657C21.43 5.13321 20.5219 4.37068 19.2778 4.37068H17.0804C16.9518 4.37043 16.8245 4.39556 16.7057 4.44463C16.5869 4.49371 16.4789 4.56576 16.388 4.65666C16.2971 4.74755 16.2251 4.85551 16.176 4.97432C16.1269 5.09313 16.1018 5.22046 16.1021 5.34901V10.421C16.1023 10.5491 16.1278 10.676 16.1772 10.7943C16.2265 10.9126 16.2986 11.02 16.3895 11.1104C16.4804 11.2008 16.5881 11.2724 16.7067 11.3211C16.8252 11.3698 16.9522 11.3946 17.0804 11.3942H19.343C20.6374 11.3942 21.6208 10.5314 21.6208 9.39736C21.6208 8.62976 21.2044 8.00264 20.5422 7.68655ZM17.9635 5.87545H18.9418C19.343 5.87545 19.5939 6.12637 19.5939 6.48734C19.5939 6.85339 19.343 7.09924 18.9418 7.09924H17.9635V5.87545ZM19.0121 9.80867H17.9635V8.52947H19.0121C19.4335 8.52947 19.7094 8.79054 19.7094 9.16673C19.7094 9.54292 19.4335 9.80867 19.0121 9.80867ZM4.50532 2.80972C5.18628 2.80972 5.80325 3.07938 6.25944 3.51528C8.92322 1.44467 12.6773 1.4392 15.343 3.50201C15.8123 3.05751 16.434 2.80975 17.0804 2.80972H17.498C17.4769 2.78826 17.4589 2.76485 17.4375 2.74338C15.6111 0.917063 13.2112 0 10.8112 0C8.41122 0 6.01125 0.917063 4.18493 2.74338C4.15176 2.77655 4.12405 2.81324 4.09166 2.8468C4.22828 2.82296 4.36664 2.81055 4.50532 2.80972ZM22.9164 19.2657L18.2218 15.1019C18.7309 14.4433 19.1493 13.7193 19.4655 12.9493C19.4246 12.9505 19.3844 12.9548 19.343 12.9548H17.297C17.1362 13.2455 16.9614 13.5308 16.7584 13.8024C16.5477 14.0873 16.3136 14.3565 16.056 14.6141C15.7985 14.8716 15.5292 15.1058 15.2443 15.3165C12.3409 17.4862 8.20049 17.2521 5.56248 14.6141C5.05395 14.1048 4.6226 13.524 4.2821 12.89C3.7912 13.0539 3.27691 13.1368 2.75938 13.1355C2.70553 13.1355 2.50612 13.1327 2.22046 13.0968C2.68592 14.1787 3.35255 15.1623 4.18493 15.9955C6.01125 17.8218 8.41122 18.735 10.8112 18.735C12.8365 18.735 14.8658 18.0833 16.5438 16.7799L20.7077 21.4745C20.8547 21.6398 21.035 21.772 21.2368 21.8626C21.4385 21.9532 21.6572 22 21.8784 22C22.0996 22 22.3182 21.9532 22.52 21.8626C22.7218 21.772 22.9021 21.6398 23.0491 21.4745C23.3239 21.1637 23.4642 20.7567 23.4393 20.3427C23.4144 19.9286 23.2264 19.5414 22.9164 19.2657Z" fill="white"/>
</svg>
