<svg width="26" height="25" viewBox="0 0 26 25" fill="none" xmlns="http://www.w3.org/2000/svg">
<path d="M21.6515 0H3.46964C1.58685 0 0.0605469 1.5263 0.0605469 3.40909V21.5909C0.0605469 23.4737 1.58685 25 3.46964 25H21.6515C23.5342 25 25.0605 23.4737 25.0605 21.5909V3.40909C25.0605 1.5263 23.5342 0 21.6515 0Z" fill="#0077B5"/>
<path d="M9.06654 6.81818C9.06654 7.23959 8.94158 7.65154 8.70746 8.00193C8.47333 8.35231 8.14057 8.62541 7.75124 8.78668C7.3619 8.94794 6.9335 8.99014 6.52018 8.90792C6.10687 8.82571 5.72722 8.62278 5.42924 8.3248C5.13126 8.02682 4.92833 7.64717 4.84612 7.23386C4.7639 6.82055 4.8061 6.39214 4.96737 6.00281C5.12863 5.61347 5.40173 5.28071 5.75212 5.04658C6.1025 4.81246 6.51445 4.6875 6.93586 4.6875C7.50095 4.6875 8.0429 4.91198 8.44248 5.31156C8.84206 5.71114 9.06654 6.25309 9.06654 6.81818ZM8.58359 10.3693V19.7827C8.58396 19.8521 8.57061 19.9209 8.54429 19.9852C8.51797 20.0495 8.47922 20.1079 8.43024 20.1571C8.38127 20.2064 8.32305 20.2455 8.25893 20.2721C8.1948 20.2988 8.12604 20.3125 8.0566 20.3125H5.81086C5.74141 20.3127 5.67262 20.2991 5.60842 20.2727C5.54423 20.2462 5.4859 20.2073 5.4368 20.1582C5.38769 20.109 5.34878 20.0507 5.32229 19.9865C5.2958 19.9223 5.28226 19.8535 5.28245 19.7841V10.3693C5.28245 10.2292 5.33812 10.0948 5.43722 9.99568C5.53631 9.89658 5.67072 9.84091 5.81086 9.84091H8.0566C8.19649 9.84129 8.33053 9.89712 8.42932 9.99618C8.52811 10.0952 8.58359 10.2294 8.58359 10.3693ZM20.3222 15.2699V19.8267C20.3224 19.8906 20.31 19.9538 20.2856 20.0128C20.2613 20.0719 20.2255 20.1255 20.1804 20.1706C20.1352 20.2158 20.0816 20.2516 20.0226 20.2759C19.9635 20.3003 19.9003 20.3127 19.8364 20.3125H17.4217C17.3578 20.3127 17.2946 20.3003 17.2355 20.2759C17.1765 20.2516 17.1229 20.2158 17.0777 20.1706C17.0326 20.1255 16.9968 20.0719 16.9725 20.0128C16.9481 19.9538 16.9357 19.8906 16.9359 19.8267V15.4105C16.9359 14.7514 17.129 12.5241 15.2128 12.5241C13.7285 12.5241 13.4259 14.0483 13.3663 14.733V19.8267C13.3663 19.9543 13.3161 20.0768 13.2265 20.1677C13.1369 20.2586 13.0152 20.3106 12.8876 20.3125H10.5552C10.4914 20.3125 10.4283 20.2999 10.3695 20.2755C10.3106 20.2511 10.2572 20.2153 10.2122 20.1701C10.1672 20.125 10.1315 20.0714 10.1073 20.0125C10.083 19.9536 10.0706 19.8904 10.0708 19.8267V10.3281C10.0706 10.2644 10.083 10.2013 10.1073 10.1423C10.1315 10.0834 10.1672 10.0298 10.2122 9.9847C10.2572 9.93957 10.3106 9.90377 10.3695 9.87934C10.4283 9.85491 10.4914 9.84233 10.5552 9.84233H12.8876C13.0164 9.84233 13.14 9.89351 13.2311 9.98462C13.3222 10.0757 13.3734 10.1993 13.3734 10.3281V11.1491C13.9245 10.3224 14.7413 9.68466 16.4842 9.68466C20.345 9.68466 20.3222 13.2898 20.3222 15.2699Z" fill="white"/>
</svg>
