<svg width="126" height="41" viewBox="0 0 126 41" fill="none" xmlns="http://www.w3.org/2000/svg">
<path d="M6.685 40.4C5.26167 40.4 4.08333 40.2833 3.15 40.05C2.21667 39.84 1.31833 39.5483 0.455 39.175V34.695C1.06167 34.9983 1.68 35.255 2.31 35.465C2.94 35.6983 3.59333 35.8733 4.27 35.99C4.97 36.1067 5.68167 36.165 6.405 36.165C7.595 36.165 8.56333 35.885 9.31 35.325C10.08 34.7883 10.6167 33.9367 10.92 32.77L11.06 32.245C11.1533 31.965 11.2467 31.65 11.34 31.3C11.4333 30.95 11.5267 30.6117 11.62 30.285C11.7367 29.9583 11.83 29.6783 11.9 29.445H11.76C11.3633 29.9583 10.92 30.4367 10.43 30.88C9.94 31.3233 9.39167 31.685 8.785 31.965C8.17833 32.2217 7.47833 32.35 6.685 32.35C5.775 32.35 4.92333 32.105 4.13 31.615C3.36 31.125 2.73 30.3783 2.24 29.375C1.77333 28.3483 1.54 27.03 1.54 25.42C1.54 24.1833 1.66833 22.9467 1.925 21.71C2.205 20.4733 2.60167 19.3067 3.115 18.21C3.62833 17.1133 4.235 16.145 4.935 15.305C5.65833 14.4417 6.46333 13.765 7.35 13.275C8.26 12.785 9.24 12.54 10.29 12.54C11.13 12.54 11.83 12.6567 12.39 12.89C12.9733 13.1233 13.475 13.45 13.895 13.87C14.3383 14.2667 14.7467 14.7567 15.12 15.34H15.26L16.24 12.89H20.195L16.03 32.455C15.61 34.4617 14.9567 36.0367 14.07 37.18C13.2067 38.3467 12.1567 39.175 10.92 39.665C9.68333 40.155 8.27167 40.4 6.685 40.4ZM9.17 28.185C9.66 28.185 10.1033 28.0567 10.5 27.8C10.8967 27.5433 11.2583 27.1933 11.585 26.75C11.935 26.3067 12.2383 25.805 12.495 25.245C12.7517 24.685 12.9617 24.09 13.125 23.46C13.2883 22.83 13.4167 22.2 13.51 21.57C13.6033 20.9167 13.65 20.2983 13.65 19.715C13.65 18.805 13.44 18.0817 13.02 17.545C12.6 16.985 12.0283 16.705 11.305 16.705C10.7917 16.705 10.3017 16.8683 9.835 17.195C9.36833 17.5217 8.94833 17.965 8.575 18.525C8.20167 19.085 7.875 19.7267 7.595 20.45C7.33833 21.1733 7.12833 21.9433 6.965 22.76C6.825 23.5533 6.755 24.3583 6.755 25.175C6.755 26.1783 6.965 26.9367 7.385 27.45C7.82833 27.94 8.42333 28.185 9.17 28.185ZM29.6363 32.35C28.2129 32.35 26.9413 32.0583 25.8213 31.475C24.7246 30.8683 23.8613 30.0167 23.2313 28.92C22.6246 27.8233 22.3213 26.5167 22.3213 25C22.3213 23.6467 22.4496 22.3517 22.7063 21.115C22.9863 19.8783 23.3946 18.7467 23.9313 17.72C24.4679 16.67 25.1446 15.76 25.9613 14.99C26.7779 14.22 27.7229 13.625 28.7963 13.205C29.8929 12.7617 31.1179 12.54 32.4713 12.54C33.9646 12.54 35.2479 12.8433 36.3213 13.45C37.3946 14.0333 38.2229 14.8967 38.8063 16.04C39.4129 17.16 39.7163 18.5133 39.7163 20.1C39.7163 21.3833 39.5879 22.6317 39.3313 23.845C39.0746 25.0583 38.6779 26.1783 38.1413 27.205C37.6279 28.2317 36.9746 29.13 36.1813 29.9C35.3879 30.67 34.4429 31.2767 33.3463 31.72C32.2496 32.14 31.0129 32.35 29.6363 32.35ZM30.0563 28.15C30.6163 28.15 31.1296 28.01 31.5963 27.73C32.0629 27.4267 32.4829 27.0183 32.8563 26.505C33.2296 25.9917 33.5329 25.3967 33.7663 24.72C34.0229 24.0433 34.2096 23.3083 34.3263 22.515C34.4663 21.7217 34.5363 20.9167 34.5363 20.1C34.5363 19.4467 34.4546 18.875 34.2913 18.385C34.1513 17.8717 33.8946 17.475 33.5213 17.195C33.1713 16.8917 32.6929 16.74 32.0863 16.74C31.4563 16.74 30.8963 16.915 30.4063 17.265C29.9163 17.615 29.4846 18.0817 29.1113 18.665C28.7613 19.225 28.4579 19.8667 28.2013 20.59C27.9679 21.3133 27.7929 22.06 27.6763 22.83C27.5596 23.5767 27.5013 24.3 27.5013 25C27.5013 26.0267 27.7113 26.8083 28.1313 27.345C28.5513 27.8817 29.1929 28.15 30.0563 28.15ZM41.8849 32L45.9449 12.89H49.8649L49.5149 16.425H49.6549C50.1449 15.655 50.6815 14.9783 51.2649 14.395C51.8715 13.8117 52.5365 13.3567 53.2599 13.03C53.9832 12.7033 54.7882 12.54 55.6749 12.54C56.7716 12.54 57.6816 12.7733 58.4049 13.24C59.1515 13.6833 59.6999 14.3133 60.0499 15.13C60.4232 15.9467 60.6099 16.915 60.6099 18.035C60.6099 18.455 60.5749 18.9333 60.5049 19.47C60.4349 19.9833 60.3416 20.5317 60.2249 21.115L57.9499 32H52.8049L55.1499 20.835C55.2432 20.4383 55.3132 20.0767 55.3599 19.75C55.4066 19.4 55.4299 19.085 55.4299 18.805C55.4299 18.0817 55.2666 17.5567 54.9399 17.23C54.6366 16.88 54.1816 16.705 53.5749 16.705C52.8049 16.705 52.1049 17.0433 51.4749 17.72C50.8449 18.3733 50.2965 19.26 49.8299 20.38C49.3865 21.5 49.0132 22.7367 48.7099 24.09L47.0299 32H41.8849ZM69.3079 32.35C68.3979 32.35 67.5229 32.1283 66.6829 31.685C65.8663 31.2183 65.2013 30.4833 64.6879 29.48C64.1746 28.4533 63.9179 27.1 63.9179 25.42C63.9179 24.1833 64.0463 22.9467 64.3029 21.71C64.5829 20.4733 64.9679 19.3067 65.4579 18.21C65.9713 17.1133 66.5896 16.145 67.3129 15.305C68.0363 14.4417 68.8529 13.765 69.7629 13.275C70.6963 12.785 71.6996 12.54 72.7729 12.54C73.5896 12.54 74.2896 12.6567 74.8729 12.89C75.4796 13.1233 75.9929 13.45 76.4129 13.87C76.8563 14.29 77.2179 14.78 77.4979 15.34H77.6379L78.6179 12.89H82.5729L78.5129 32H74.6629L74.9079 29.515H74.7679C74.3246 30.075 73.8346 30.565 73.2979 30.985C72.7613 31.405 72.1663 31.7433 71.5129 32C70.8596 32.2333 70.1246 32.35 69.3079 32.35ZM71.3379 28.185C72.0379 28.185 72.6913 27.905 73.2979 27.345C73.9046 26.785 74.4179 26.0617 74.8379 25.175C75.2813 24.2883 75.5963 23.355 75.7829 22.375C75.8763 21.9083 75.9346 21.4533 75.9579 21.01C76.0046 20.5433 76.0279 20.0417 76.0279 19.505C76.0279 18.6883 75.8179 18.0233 75.3979 17.51C74.9779 16.9733 74.3946 16.705 73.6479 16.705C73.1346 16.705 72.6563 16.8683 72.2129 17.195C71.7696 17.5217 71.3496 17.965 70.9529 18.525C70.5796 19.085 70.2529 19.7267 69.9729 20.45C69.7163 21.1733 69.5063 21.9433 69.3429 22.76C69.2029 23.5533 69.1329 24.3583 69.1329 25.175C69.1329 26.1783 69.3196 26.9367 69.6929 27.45C70.0896 27.94 70.6379 28.185 71.3379 28.185Z" fill="#7AC144"/>
<path d="M89.9142 32.35C88.8175 32.35 87.9075 32.1283 87.1842 31.685C86.4608 31.2183 85.9242 30.5767 85.5742 29.76C85.2242 28.9433 85.0492 27.975 85.0492 26.855C85.0492 26.435 85.0842 25.8983 85.1542 25.245C85.2242 24.5683 85.3292 23.8917 85.4692 23.215L87.6392 12.89H92.7842L90.4392 24.055C90.3458 24.4283 90.2758 24.79 90.2292 25.14C90.1825 25.49 90.1592 25.805 90.1592 26.085C90.1592 26.8083 90.3108 27.345 90.6142 27.695C90.9408 28.0217 91.4075 28.185 92.0142 28.185C92.8075 28.185 93.5075 27.8583 94.1142 27.205C94.7442 26.5283 95.2925 25.63 95.7592 24.51C96.2258 23.39 96.5992 22.1533 96.8792 20.8L98.5592 12.89H103.704L99.6442 32H95.7242L96.0742 28.465H95.8992C95.4092 29.2117 94.8725 29.8883 94.2892 30.495C93.7058 31.0783 93.0525 31.5333 92.3292 31.86C91.6058 32.1867 90.8008 32.35 89.9142 32.35ZM103.127 40.4L108.972 12.89H112.892L112.612 15.795H112.752C113.149 15.235 113.604 14.71 114.117 14.22C114.654 13.73 115.261 13.3333 115.937 13.03C116.614 12.7033 117.361 12.54 118.177 12.54C119.111 12.54 119.986 12.7733 120.802 13.24C121.619 13.6833 122.284 14.4183 122.797 15.445C123.311 16.4483 123.567 17.8017 123.567 19.505C123.567 20.7417 123.427 21.9783 123.147 23.215C122.891 24.4517 122.506 25.6183 121.992 26.715C121.502 27.8117 120.896 28.78 120.172 29.62C119.449 30.46 118.621 31.125 117.687 31.615C116.777 32.105 115.786 32.35 114.712 32.35C113.942 32.35 113.289 32.2333 112.752 32C112.216 31.7433 111.761 31.405 111.387 30.985C111.014 30.5417 110.676 30.0633 110.372 29.55H110.232C110.162 30.4833 110.069 31.335 109.952 32.105C109.836 32.875 109.684 33.7033 109.497 34.59L108.272 40.4H103.127ZM113.837 28.185C114.351 28.185 114.829 28.0217 115.272 27.695C115.716 27.3683 116.124 26.925 116.497 26.365C116.894 25.805 117.221 25.1633 117.477 24.44C117.757 23.7167 117.967 22.9467 118.107 22.13C118.271 21.3133 118.352 20.5083 118.352 19.715C118.352 18.7117 118.166 17.965 117.792 17.475C117.419 16.9617 116.859 16.705 116.112 16.705C115.552 16.705 115.051 16.845 114.607 17.125C114.164 17.405 113.767 17.79 113.417 18.28C113.091 18.7467 112.799 19.2833 112.542 19.89C112.286 20.4967 112.076 21.115 111.912 21.745C111.772 22.375 111.656 22.9933 111.562 23.6C111.492 24.1833 111.457 24.7083 111.457 25.175C111.457 26.085 111.667 26.82 112.087 27.38C112.531 27.9167 113.114 28.185 113.837 28.185Z" fill="#706F96"/>
</svg>
