<svg width="26" height="22" viewBox="0 0 26 22" fill="none" xmlns="http://www.w3.org/2000/svg">
<path d="M24.3024 2.93353C24.3009 2.93353 24.2993 2.93333 24.2978 2.93333H17.6489V2.2C17.6489 0.98692 16.6619 0 15.4489 0H9.58222C8.36914 0 7.38222 0.986969 7.38222 2.2V2.93333H0.733333C0.325013 2.93333 0 3.26793 0 3.66667V19.8C0 21.0131 0.986969 22 2.2 22H22.8311C24.0442 22 25.0311 21.013 25.0311 19.8V3.67928C25.003 3.19763 24.7068 2.93617 24.3024 2.93353ZM8.84889 2.2C8.84889 1.79569 9.17791 1.46667 9.58222 1.46667H15.4489C15.8532 1.46667 16.1822 1.79569 16.1822 2.2V2.93333H8.84889V2.2ZM23.2803 4.4L21.0029 11.2318C20.9544 11.3779 20.8611 11.505 20.7363 11.595C20.6114 11.6851 20.4614 11.7335 20.3075 11.7333H16.1822V11C16.1822 10.595 15.8539 10.2667 15.4489 10.2667H9.58222C9.17718 10.2667 8.84889 10.595 8.84889 11V11.7333H4.72369C4.56976 11.7335 4.4197 11.6851 4.29485 11.5951C4.16999 11.505 4.07669 11.3779 4.0282 11.2318L1.75086 4.4H23.2803ZM14.7156 11.7333V13.2H10.3156V11.7333H14.7156ZM23.5644 19.8C23.5644 20.2043 23.2354 20.5333 22.8311 20.5333H2.2C1.79569 20.5333 1.46667 20.2043 1.46667 19.8V8.18566L2.63677 11.6957C2.78235 12.134 3.06235 12.5152 3.43698 12.7853C3.81162 13.0553 4.26183 13.2004 4.72364 13.2H8.84889V13.9333C8.84889 14.3384 9.17718 14.6667 9.58222 14.6667H15.4489C15.8539 14.6667 16.1822 14.3384 16.1822 13.9333V13.2H20.3074C20.7692 13.2004 21.2195 13.0553 21.5941 12.7853C21.9688 12.5152 22.2488 12.134 22.3943 11.6957L23.5644 8.18566V19.8Z" fill="#7AC144"/>
</svg>
