<svg width="22" height="22" viewBox="0 0 22 22" fill="none" xmlns="http://www.w3.org/2000/svg">
<path d="M21.3555 10.3555H20.6894C20.5363 8.00422 19.548 5.8147 17.8667 4.13334C16.1853 2.45197 13.9958 1.46369 11.6445 1.31063V0.644531C11.6445 0.288578 11.356 0 11 0C10.644 0 10.3555 0.288578 10.3555 0.644531V1.31063C8.00422 1.46369 5.8147 2.45197 4.13334 4.13334C2.45197 5.8147 1.46369 8.00422 1.31063 10.3555H0.644531C0.288578 10.3555 0 10.644 0 11C0 11.356 0.288578 11.6445 0.644531 11.6445H1.31063C1.46369 13.9958 2.45197 16.1853 4.13334 17.8667C5.8147 19.548 8.00422 20.5363 10.3555 20.6894V21.3555C10.3555 21.7114 10.644 22 11 22C11.356 22 11.6445 21.7114 11.6445 21.3555V20.6894C13.9958 20.5363 16.1853 19.548 17.8667 17.8667C19.548 16.1853 20.5363 13.9958 20.6894 11.6445H21.3555C21.7114 11.6445 22 11.356 22 11C22 10.644 21.7114 10.3555 21.3555 10.3555ZM18.7773 11.6445H19.3974C19.0833 15.7756 15.7756 19.0833 11.6445 19.3974V18.7773C11.6445 18.4214 11.356 18.1328 11 18.1328C10.644 18.1328 10.3555 18.4214 10.3555 18.7773V19.3974C6.22437 19.0833 2.91668 15.7756 2.60257 11.6445H3.22266C3.57861 11.6445 3.86719 11.356 3.86719 11C3.86719 10.644 3.57861 10.3555 3.22266 10.3555H2.60257C2.91668 6.22437 6.22437 2.91668 10.3555 2.60257V3.22266C10.3555 3.57861 10.644 3.86719 11 3.86719C11.356 3.86719 11.6445 3.57861 11.6445 3.22266V2.60257C15.7756 2.91668 19.0833 6.22437 19.3974 10.3555H18.7773C18.4214 10.3555 18.1328 10.644 18.1328 11C18.1328 11.356 18.4214 11.6445 18.7773 11.6445Z" fill="#7AC144"/>
<path d="M11.0143 10.6419C12.3986 10.6419 13.5208 9.51972 13.5208 8.13542C13.5208 6.75111 12.3986 5.62891 11.0143 5.62891C9.63002 5.62891 8.50781 6.75111 8.50781 8.13542C8.50781 9.51972 9.63002 10.6419 11.0143 10.6419Z" fill="#7AC144"/>
<path d="M12.7939 11.3581H9.2347C8.47241 11.359 7.74161 11.6622 7.20258 12.2013C6.66356 12.7403 6.36032 13.4711 6.35938 14.2334V16.013C6.35938 16.108 6.3971 16.1991 6.46425 16.2662C6.5314 16.3334 6.62248 16.3711 6.71745 16.3711H15.3112C15.4062 16.3711 15.4972 16.3334 15.5644 16.2662C15.6315 16.1991 15.6693 16.108 15.6693 16.013V14.2334C15.6683 13.4711 15.3651 12.7403 14.8261 12.2013C14.287 11.6622 13.5562 11.359 12.7939 11.3581Z" fill="#7AC144"/>
</svg>
