<svg width="31" height="32" viewBox="0 0 31 32" fill="none" xmlns="http://www.w3.org/2000/svg">
<path d="M26.8818 29.6342C26.8818 30.2616 26.6325 30.8633 26.1889 31.3069C25.7453 31.7505 25.1436 31.9998 24.5162 31.9998C23.2151 31.9998 22.1559 30.9406 22.1559 29.6342C22.1559 28.5697 22.871 27.6611 23.8495 27.3761V26.1342L22.2689 24.5482C22.1398 24.4191 22.0699 24.2525 22.0699 24.075V21.2793H23.4033V23.8009L24.9893 25.3869C25.1183 25.5159 25.1828 25.6826 25.1828 25.8546V27.3654C26.1667 27.6557 26.8818 28.5589 26.8818 29.6342ZM7.50003 26.1342V27.3761C8.47853 27.6611 9.19358 28.5697 9.19358 29.6342C9.19358 30.9406 8.13444 31.9998 6.83337 31.9998C6.20597 31.9998 5.60427 31.7505 5.16064 31.3069C4.717 30.8633 4.46777 30.2616 4.46777 29.6342C4.46777 28.5589 5.1882 27.6557 6.1667 27.3654V25.8546C6.1667 25.6826 6.23121 25.5159 6.36025 25.3869L7.94627 23.8009V21.2793H9.2796V24.075C9.2796 24.2525 9.20433 24.4191 9.08605 24.5482L7.50003 26.1342ZM17.9732 27.6557C17.9732 28.8976 16.9678 29.903 15.7312 29.903C14.5 29.903 13.4893 28.8976 13.4893 27.6557C13.4893 26.6557 14.1506 25.8009 15.0645 25.5159V21.2847H16.3979V25.5159C17.3119 25.8009 17.9732 26.6557 17.9732 27.6557ZM19.1721 7.22559H11.285C10.9248 7.22559 10.6291 7.52128 10.6291 7.8815V15.7632C10.6291 16.1234 10.9248 16.4191 11.285 16.4191H19.1667C19.5269 16.4191 19.8226 16.1234 19.8226 15.7632V7.8815C19.8233 7.79562 19.807 7.71045 19.7746 7.6309C19.7423 7.55135 19.6945 7.479 19.634 7.41802C19.5735 7.35704 19.5016 7.30864 19.4223 7.27561C19.343 7.24259 19.258 7.22558 19.1721 7.22559ZM18.4947 14.4191C18.4947 14.7847 18.199 15.0858 17.828 15.0858H12.6291C12.2581 15.0858 11.9624 14.7847 11.9624 14.4191V9.22559C11.9624 8.85999 12.2581 8.55892 12.6291 8.55892H17.8226C18.1936 8.55892 18.4893 8.85999 18.4893 9.22559V14.4191H18.4947Z" fill="white"/>
<path d="M13.2957 9.89258H17.1559V13.7528H13.2957V9.89258Z" fill="white"/>
<path d="M24.371 7.2043C24.2151 7.2043 24.0645 7.20968 23.9194 7.22043C23.5914 7.24194 23.2849 7 23.2258 6.66129C22.586 2.80108 19.2849 0 15.371 0C11.457 0 8.15591 2.80108 7.51613 6.66129C7.46237 6.99462 7.16129 7.24194 6.82258 7.22043C6.67204 7.21505 6.52688 7.2043 6.37097 7.2043C2.86022 7.2043 0 10.0645 0 13.5753C0 17.086 2.86022 19.9462 6.37097 19.9462H24.3763C27.8871 19.9462 30.7473 17.086 30.7473 13.5753C30.7473 10.0645 27.8871 7.2043 24.371 7.2043ZM21.6452 11.1559C21.822 11.1559 21.9915 11.2262 22.1166 11.3512C22.2416 11.4762 22.3118 11.6458 22.3118 11.8226C22.3118 11.9994 22.2416 12.169 22.1166 12.294C21.9915 12.419 21.822 12.4892 21.6452 12.4892H21.1613V14.3925H21.6452C21.822 14.3925 21.9915 14.4627 22.1166 14.5877C22.2416 14.7128 22.3118 14.8823 22.3118 15.0591C22.3118 15.236 22.2416 15.4055 22.1166 15.5305C21.9915 15.6556 21.822 15.7258 21.6452 15.7258H21.1613V15.7634C21.1613 16.8602 20.2688 17.7527 19.172 17.7527H19.1344V18.2366C19.1344 18.3241 19.1172 18.4108 19.0837 18.4917C19.0502 18.5726 19.0011 18.6461 18.9391 18.708C18.8772 18.7699 18.8037 18.819 18.7229 18.8525C18.642 18.886 18.5553 18.9032 18.4677 18.9032C18.3802 18.9032 18.2935 18.886 18.2126 18.8525C18.1317 18.819 18.0582 18.7699 17.9963 18.708C17.9344 18.6461 17.8853 18.5726 17.8518 18.4917C17.8183 18.4108 17.8011 18.3241 17.8011 18.2366V17.7527H15.8925V18.2366C15.8925 18.4134 15.8222 18.5829 15.6972 18.708C15.5722 18.833 15.4026 18.9032 15.2258 18.9032C15.049 18.9032 14.8794 18.833 14.7544 18.708C14.6294 18.5829 14.5591 18.4134 14.5591 18.2366V17.7527H12.6559V18.2366C12.6559 18.4134 12.5857 18.5829 12.4607 18.708C12.3356 18.833 12.1661 18.9032 11.9892 18.9032C11.8124 18.9032 11.6429 18.833 11.5178 18.708C11.3928 18.5829 11.3226 18.4134 11.3226 18.2366V17.7527H11.2849C10.1882 17.7527 9.2957 16.8602 9.2957 15.7634V15.7312H8.81183C8.63502 15.7312 8.46545 15.6609 8.34042 15.5359C8.2154 15.4109 8.14516 15.2413 8.14516 15.0645C8.14516 14.8877 8.2154 14.7181 8.34042 14.5931C8.46545 14.4681 8.63502 14.3979 8.81183 14.3979H9.2957V12.4946H8.81183C8.63502 12.4946 8.46545 12.4244 8.34042 12.2994C8.2154 12.1743 8.14516 12.0048 8.14516 11.828C8.14516 11.6511 8.2154 11.4816 8.34042 11.3566C8.46545 11.2315 8.63502 11.1613 8.81183 11.1613H9.2957V9.25269H8.81183C8.63502 9.25269 8.46545 9.18245 8.34042 9.05743C8.2154 8.9324 8.14516 8.76283 8.14516 8.58602C8.14516 8.40921 8.2154 8.23964 8.34042 8.11462C8.46545 7.98959 8.63502 7.91935 8.81183 7.91935H9.2957V7.88172C9.2957 6.78495 10.1882 5.89247 11.2849 5.89247H11.3226V5.4086C11.3226 5.23179 11.3928 5.06222 11.5178 4.9372C11.6429 4.81217 11.8124 4.74194 11.9892 4.74194C12.1661 4.74194 12.3356 4.81217 12.4607 4.9372C12.5857 5.06222 12.6559 5.23179 12.6559 5.4086V5.89247H14.5591V5.4086C14.5591 5.23179 14.6294 5.06222 14.7544 4.9372C14.8794 4.81217 15.049 4.74194 15.2258 4.74194C15.4026 4.74194 15.5722 4.81217 15.6972 4.9372C15.8222 5.06222 15.8925 5.23179 15.8925 5.4086V5.89247H17.8011V5.4086C17.8011 5.04301 18.0968 4.74194 18.4677 4.74194C18.8387 4.74194 19.1344 5.03763 19.1344 5.4086V5.89247H19.172C20.2688 5.89247 21.1613 6.78495 21.1613 7.88172V7.91935H21.6452C21.822 7.91935 21.9915 7.98959 22.1166 8.11462C22.2416 8.23964 22.3118 8.40921 22.3118 8.58602C22.3118 8.76283 22.2416 8.9324 22.1166 9.05743C21.9915 9.18245 21.822 9.25269 21.6452 9.25269H21.1613V11.1613H21.6452V11.1559Z" fill="white"/>
</svg>
