<svg width="22" height="22" viewBox="0 0 22 22" fill="none" xmlns="http://www.w3.org/2000/svg">
<path d="M2.74085 20.6667H10.9635C11.191 20.6667 11.3771 20.851 11.3771 21.0834C11.3771 21.3157 11.191 21.5 10.9635 21.5H2.74085C1.50743 21.5 0.5 20.4916 0.5 19.25V2.75003C0.5 1.50843 1.50744 0.5 2.74085 0.5H10.9635C11.1909 0.5 11.3771 0.684333 11.3771 0.916733C11.3771 1.14907 11.191 1.33338 10.9635 1.33338H2.74085C1.95887 1.33338 1.32725 1.96943 1.32725 2.75003V19.2501C1.32725 20.0306 1.9588 20.6667 2.74085 20.6667Z" fill="white" stroke="white"/>
<path d="M15.8206 5.20217L15.8211 5.2027L21.3754 10.7022C21.3756 10.7023 21.3757 10.7025 21.3758 10.7026C21.456 10.7825 21.5 10.8886 21.5 11C21.5 11.1113 21.4553 11.2185 21.3757 11.2976C21.3756 11.2977 21.3755 11.2977 21.3755 11.2978L15.8211 16.7974L15.8206 16.7979C15.741 16.877 15.6373 16.9167 15.5315 16.9167C15.4257 16.9167 15.3197 16.876 15.2374 16.7929C15.0764 16.6283 15.0787 16.3641 15.2416 16.203L15.242 16.2027L19.2117 12.272L20.0755 11.4167H18.8599H8.22256C7.99508 11.4167 7.80896 11.2324 7.80896 11C7.80896 10.7677 7.99504 10.5834 8.22256 10.5834H18.8599H20.0754L19.2117 9.7281L15.242 5.79745L15.2416 5.79706C15.0779 5.63534 15.0762 5.37112 15.2374 5.20728C15.3987 5.04341 15.6601 5.04279 15.8206 5.20217Z" fill="white" stroke="white"/>
</svg>
