<svg width="25" height="32" viewBox="0 0 25 32" fill="none" xmlns="http://www.w3.org/2000/svg">
<path d="M16.2039 25.8824C16.2039 26.2086 16.0847 26.5098 15.8776 26.7357H4.78431C4.05019 25.9451 4.65882 24.5647 5.75058 24.5898H14.9114C15.6267 24.5898 16.2039 25.1671 16.2039 25.8824ZM4.78431 27.6078C4.05019 28.3984 4.65882 29.7788 5.75058 29.7537H14.9114C16.0031 29.7788 16.6118 28.3922 15.8714 27.6078H4.78431ZM8.4298 32H12.2384C13.0541 32 13.7255 31.4039 13.8572 30.6259H6.81097C6.94274 31.4039 7.61411 32 8.4298 32ZM16.6682 19.1498C15.3255 20.3169 14.5035 21.9608 14.3341 23.7176H11.5545V6.14902C11.5545 5.77882 11.8682 5.48392 12.2384 5.51529C19.1027 6.12392 21.782 14.7388 16.6682 19.1498ZM17.8855 13.2769C17.9043 10.6416 16.1725 8.16941 13.6753 7.3098C13.418 7.21569 13.1231 7.35373 13.0353 7.61726C12.9412 7.88078 13.0729 8.16314 13.3365 8.25726C15.4322 8.97882 16.8941 11.0557 16.8753 13.2769C16.8878 13.9357 17.8792 13.9357 17.8855 13.2769ZM5.11686 20.731C5.44313 20.3922 6.18352 19.9529 6.4596 20.5741C6.55999 20.8314 6.42823 21.1263 6.1647 21.2267C5.03529 21.7412 5.61882 23.2659 6.32156 23.7176H8.57411C9.05725 23.3663 9.37097 22.8016 9.37097 22.1616V7.93726C9.35843 5.88549 6.54745 5.28314 5.70666 7.14667C6.38431 7.27843 8.38588 8.9851 6.94901 9.3051C6.47215 9.28627 6.36548 8.65255 5.98901 8.43922C4.10039 6.94588 1.4149 8.99137 2.23058 11.1686C3.08392 11.0118 4.20705 11.4322 4.77803 12.1537C5.06039 12.4612 4.80313 12.9945 4.39529 12.982C4.25097 12.982 4.11294 12.9192 4.01254 12.8C3.88078 12.6431 3.58588 12.3545 3.12156 12.2227C2.79529 12.1161 2.34352 12.1412 2.07999 12.229C-0.523928 12.9882 -0.737261 16.6902 1.74744 17.7506C2.08627 17.2047 4.06901 15.6925 4.42666 16.7529C4.49568 17.0227 4.32627 17.2988 4.06274 17.3616C1.20156 18.0706 1.59686 22.0863 4.54588 22.1678C4.55215 21.6784 4.70901 21.1388 5.11686 20.731ZM18.3122 7.09647C18.4439 7.09647 18.5694 7.04628 18.6698 6.95216L20.9976 4.62431C21.4557 4.14745 20.7592 3.45098 20.2886 3.91529L17.9608 6.24314C17.6345 6.53804 17.8792 7.10902 18.3122 7.09647ZM24.3984 12.8439H21.1106C20.4455 12.8565 20.4518 13.8416 21.1106 13.8478H24.3984C25.0635 13.8416 25.0573 12.8565 24.3984 12.8439ZM18.6635 19.7522C18.1867 19.2941 17.4902 19.9906 17.9545 20.4612L20.2823 22.789C20.7529 23.2533 21.4557 22.5443 20.9914 22.08C20.9914 22.0737 18.6635 19.7522 18.6635 19.7522ZM11.5545 4.29804C11.8306 4.29804 12.0565 4.07216 12.0565 3.79608V0.501961C12.0565 0.225882 11.8306 0 11.5545 0C11.2784 0 11.0525 0.225882 11.0525 0.501961V3.7898C11.0525 4.07216 11.2784 4.29804 11.5545 4.29804Z" fill="white"/>
</svg>
