<svg width="26" height="25" viewBox="0 0 26 25" fill="none" xmlns="http://www.w3.org/2000/svg">
<path d="M24.1735 14.5871C24.3027 13.8829 24.3706 13.1623 24.3706 12.4419C24.3706 10.8445 24.058 9.29478 23.4401 7.83579C22.8439 6.42649 21.991 5.16093 20.9037 4.07438C19.8179 2.98763 18.5513 2.13489 17.1428 1.53872C15.6844 0.921559 14.1346 0.608744 12.5373 0.608744C11.7844 0.608744 11.0303 0.67952 10.2965 0.820436C10.2949 0.820827 10.2928 0.820828 10.2909 0.82117C9.28411 0.285846 8.15184 0 7.00562 0C5.13441 0 3.37499 0.728662 2.05192 2.05231C0.729053 3.37533 0 5.13475 0 7.00601C0 8.19697 0.306501 9.36786 0.881423 10.4024C0.764784 11.0728 0.703259 11.7578 0.703259 12.4419C0.703259 14.0397 1.01602 15.5892 1.63397 17.0484C2.22916 18.458 3.08248 19.7228 4.16884 20.8096C5.25618 21.8962 6.52095 22.7502 7.931 23.3448C9.38959 23.9632 10.9399 24.2762 12.5371 24.2762C13.2325 24.2762 13.9294 24.2127 14.6097 24.092C15.6609 24.687 16.8482 24.9998 18.0562 25C19.927 25 21.6855 24.2727 23.0087 22.9487C24.3322 21.6264 25.0604 19.8666 25.0604 17.9954C25.0604 16.8004 24.7524 15.6257 24.1735 14.5871Z" fill="#00AFF0"/>
<path d="M12.5848 19.6892C8.38081 19.6892 6.5 17.6224 6.5 16.0733C6.5 15.2789 7.08657 14.7219 7.89497 14.7219C9.69414 14.7219 9.22817 17.3052 12.5848 17.3052C14.3033 17.3052 15.2522 16.3722 15.2522 15.4174C15.2522 14.843 14.9688 14.2065 13.8373 13.9275L10.0981 12.9941C7.08657 12.2389 6.54014 10.6108 6.54014 9.08053C6.54014 5.90318 9.53178 4.71011 12.3412 4.71011C14.9293 4.71011 17.98 6.14047 17.98 8.04668C17.98 8.8635 17.2727 9.33842 16.4646 9.33842C14.9293 9.33842 15.2117 7.21328 12.1189 7.21328C10.5841 7.21328 9.73408 7.90831 9.73408 8.9027C9.73408 9.89538 10.9463 10.2124 11.9986 10.4521L14.7664 11.0664C17.7982 11.742 18.5668 13.5121 18.5668 15.1793C18.567 17.7612 16.585 19.6892 12.5848 19.6892V19.6892Z" fill="white"/>
</svg>
